<?xml version="1.0" encoding="utf-8"?>
<!-- Generator: Adobe Illustrator 24.0.1, SVG Export Plug-In . SVG Version: 6.00 Build 0)  -->
<svg version="1.1" id="Layer_1" xmlns="http://www.w3.org/2000/svg" xmlns:xlink="http://www.w3.org/1999/xlink" x="0px" y="0px"
	 viewBox="0 0 1502.4 1239.2" style="enable-background:new 0 0 1502.4 1239.2;" xml:space="preserve">
<style type="text/css">
	.st0{fill:#FFFFFF;}
</style>
<g>
	<path class="st0" d="M1282.5,654.6l-83.1-41.5c-10.6-5.3-23.6-0.6-28.3,10.3l-1.8,4l77.8,38.9L1119,730.3l-128.1-64.1l59.7-29.8
		c9.9-4.9,14.2-16.8,9.8-26.9l-2.6-6l-102.2,51.1c-4.5,2.2-7.3,6.8-7.3,11.8v90.8c0,11.5,9.3,20.8,20.8,20.8h5.5v-90.5l131.4,65.7
		V921l-75.1-37.4c-10.6-5.3-23.5-0.6-28.3,10.3l-1.8,4.1l112.4,56c3.7,1.8,8.1,1.8,11.8,0l157.6-78.8c4.5-2.2,7.3-6.8,7.3-11.8v-197
		C1289.8,661.3,1286.9,656.8,1282.5,654.6z M1263.5,855.2l-131.4,65.7V753.1l131.4-65.7V855.2z"/>
	<path class="st0" d="M1026.7,795.9L909,854.5l-144.6-72.3V659.9l150.4-75.2c4.5-2.2,7.3-6.8,7.3-11.7V384.2l116.3-58l-1.8-4
		c-4.8-10.9-17.7-15.6-28.3-10.3L909,361.3l-151.9-76c-3.7-1.9-8-1.9-11.8,0l-151.9,76l-99.2-49.4c-10.6-5.3-23.5-0.6-28.3,10.3
		l-1.8,4l116.3,58V573c0,5,2.8,9.5,7.3,11.8L738,659.9v122.3l-144.7,72.3l-117.7-58.6l-2.6,6c-4.4,10.1-0.1,22,9.8,26.9l97.6,48.6
		v188.8c0,5,2.8,9.5,7.2,11.8l157.6,78.8c3.7,1.8,8,1.8,11.8,0l157.6-78.8c4.5-2.2,7.3-6.8,7.3-11.8V877.4l97.6-48.6
		c9.9-4.9,14.2-16.8,9.8-26.9L1026.7,795.9z M895.7,564.9l-131.4,65.7V462.9l131.4-65.7V564.9z M751.2,311.8l128.3,64.1l-128.3,64.1
		l-128.3-64.1L751.2,311.8z M606.7,564.9V397.2L738,462.9v167.7L606.7,564.9z M738,1123.8l-131.4-65.7V890.4L738,956.1V1123.8z
		 M751.2,933.3l-128.3-64.1l115.2-57.6v29.8c0,11.5,9.3,20.8,20.8,20.8h5.5v-50.6l115.2,57.6L751.2,933.3z M895.7,1058.1
		l-131.4,65.7V956.1l131.4-65.7V1058.1z"/>
	<path class="st0" d="M1282.5,161.2l-157.6-78.8c-3.7-1.8-8-1.8-11.7,0l-157.6,78.8c-4.5,2.2-7.3,6.8-7.3,11.8v97.5
		c0,11.5,9.3,20.8,20.8,20.8h5.5v-97l131.4,65.7v167.7l-74.6-37.3c-10.6-5.3-23.6-0.6-28.3,10.3l-1.8,4l104.7,52.3v204.6h5.5
		c11.5,0,20.8-9.3,20.8-20.8V456.9l150.3-75.2c4.5-2.2,7.3-6.8,7.3-11.8V172.9C1289.8,168,1286.9,163.4,1282.5,161.2z M1119,237.1
		l-128.3-64.1l128.3-64.1l128.3,64.1L1119,237.1z M1263.5,361.9l-131.4,65.7V259.9l131.4-65.7V361.9z"/>
	<path class="st0" d="M474.6,882.1L396.5,921V753.1l131.4-65.7v90.5h5.5c11.5,0,20.8-9.3,20.8-20.8v-90.8c0-5-2.8-9.5-7.3-11.8
		l-102.5-51.2l-2.6,6c-4.4,10.1-0.1,21.9,9.8,26.9l60,30l-128.1,64l-128.1-64.1l77.5-38.8l-1.8-4c-4.8-10.9-17.7-15.6-28.3-10.3
		l-82.8,41.4c-4.5,2.2-7.3,6.8-7.3,11.8v197c0,5,2.8,9.5,7.3,11.8l157.6,78.8c3.7,1.8,8.1,1.9,11.8,0l115.4-57.5l-1.8-4.1
		C498.1,881.5,485.2,876.8,474.6,882.1z M370.2,920.9l-131.4-65.7V687.4l131.4,65.7V920.9z"/>
	<path class="st0" d="M219.9,381.7l150.3,75.2v183.9c0,11.5,9.3,20.8,20.8,20.8h5.5V456.9l109.4-54.7l-1.8-4
		c-4.8-10.9-17.7-15.6-28.3-10.3l-79.3,39.6V259.9l131.4-65.7v97h5.5c11.5,0,20.8-9.3,20.8-20.8v-97.5c0-5-2.8-9.6-7.3-11.8
		L389.2,82.4c-3.7-1.8-8-1.8-11.7,0l-157.6,78.8c-4.5,2.2-7.3,6.8-7.3,11.8v197C212.6,375,215.4,379.5,219.9,381.7z M383.4,108.8
		l128.3,64.1l-128.3,64.1l-128.3-64.1L383.4,108.8z M238.9,194.2l131.4,65.7v167.7l-131.4-65.7L238.9,194.2L238.9,194.2z"/>
</g>
</svg>
