<?xml version="1.0" encoding="utf-8"?>
<!-- Generator: Adobe Illustrator 24.0.1, SVG Export Plug-In . SVG Version: 6.00 Build 0)  -->
<svg version="1.1" id="Layer_1" xmlns="http://www.w3.org/2000/svg" xmlns:xlink="http://www.w3.org/1999/xlink" x="0px" y="0px"
	 viewBox="0 0 1417.3 1239.2" style="enable-background:new 0 0 1417.3 1239.2;" xml:space="preserve">
<style type="text/css">
	.st0{fill-rule:evenodd;clip-rule:evenodd;fill:#FFFFFF;}
	.st1{fill:#FFFFFF;}
</style>
<g>
	<path class="st0" d="M1124,939.5c-12.3,0-22.4-10-22.4-22.4v-22.1H728v22.1c0,12.4-10,22.4-22.4,22.4h-15.2v-44.5H328v22.1
		c0,12.4-10,22.4-22.4,22.4h-15.2v-40.7c-0.1-10.8,4.1-21,11.6-28.6c7.6-7.7,17.7-11.9,28.5-12l359.9,0v-26.7
		c0-9.8,8-17.8,17.8-17.8H728v44.5c0,0,369.9,0,369.9,0c22.8,0,40.8,17.7,41.4,39.4l0,42H1124z"/>
	<path class="st1" d="M694.5,745.5l-12.8-1.5c-8.4-1-15.9-1.9-23.2-3.2c-71-12.2-132.8-43.5-183.7-93.2
		c-52.8-51.5-86.2-114.5-99.3-187.1c-1.5-8.5-2.7-17.4-3.8-26.4c-0.5-4-1-8-1.5-12l0.1-44.3c0.6-2.2,0.8-3.3,0.9-4.1
		c2.7-37.7,11-72.6,24.6-103.9C445.8,155.3,533,84.9,655.2,60.5c8.1-1.6,16.4-2.6,24.4-3.6c0,0,10.3-1.3,14.1-1.8l44,0l8.7,1
		c5.8,0.7,10.9,1.3,16,2c69.4,10,130.5,38.1,181.4,83.3c56,49.8,92.6,111.8,108.5,184.2l1,4c1,4.2,0.3,8.6-2.1,12.4
		c-2.3,3.7-5.9,6.4-10.2,7.4l-16.1,3.8l-8.8-37.6c-10.2-36.2-26.9-70.4-49.9-101.7l-1.8-2.5l-2.8,1.3c-23.3,9.8-45.5,18.9-67.1,27.5
		c-4.1,1.6-8.4,2.9-13.2,4.2l-3.6,1.6l0.7,3c10.1,40.6,15.9,83.5,17.7,131l0.1,3.6h130.1c7.7,0.6,33.3,5.6,33.3,43.7
		c-4.1,54.1-20.1,104.3-47.5,149.1c-54.5,89.1-134,144.2-236.5,163.7c-8.5,1.6-17.3,2.7-25.8,3.7l-2.8,0.3
		c-3.7,0.4-7.5,0.9-11.2,1.4l0,0L694.5,745.5z M732.2,568.2v142.4l4.9-1.5c9.5-3,18.3-7.8,26.9-14.6c37.1-29.7,55.8-70.9,70.6-110.9
		l1.5-4l-4.2-0.9c-23-5.1-70.9-10.5-93.2-10.5h0L732.2,568.2z M694.7,567.8c-34.3,1.1-65.6,4.6-95.7,10.7l-4.1,0.8l1.2,4
		c7.6,24.8,27,62.6,42.6,82.5c15.6,20.2,30.2,32.6,47.3,40.2c2.4,1,4.9,2,7.6,2.9l4.9,1.6V567.7L694.7,567.8z M559.2,587.9
		c-26.1,7.4-47.1,15.3-66.1,24.7l-4.6,2.3l3.6,3.7c34.2,34.8,72.7,59.4,117.6,75.3l12,4.3l-7.8-10.1c-19.9-25.8-35.8-56.8-50.2-97.9
		l-1.2-3.3L559.2,587.9z M867,590.2c-14.3,40.9-30.2,72-50.2,97.8l-7.8,10.1l12-4.2c45.3-16.1,83.8-40.7,117.6-75.4l3.6-3.7
		l-4.7-2.3c-20.5-10-42.1-18-66.1-24.7l-3.4-1L867,590.2z M895.2,436.9c-1.3,16.7-2.7,33.7-4.9,50c-2.3,16.9-5.5,33.7-8.3,48.6
		l-3.5,18.5l86.8,33.7l1.7-2.4c35.7-48.9,55.9-104.2,60-164.4l0.3-4H896.8L895.2,436.9z M403.4,417.1l0.3,4
		c4.2,60.3,24.4,115.6,60,164.3l1.7,2.3l87.5-34l-0.8-3.2c-5.6-22.3-8.3-34.5-10.7-52.5l-0.5-3.8c-0.5-3.5-1.1-10.8-1.3-13.2
		l-1.1-11.4c-0.9-9,5.8-17,14.8-18l16.4-1.6l3.9,41c2.5,20,5.3,31.2,10.5,51.7l0.8,3.3l113.7-12.6V417L403.4,417.1z M732,533.3
		l113.8,12.6l0.8-3.2c9.7-38.8,15.2-79.8,16.2-121.8l0.1-3.9H732V533.3z M732.1,267.4v116.1H863l-0.1-3.9
		c-1.3-43.5-6.8-84.5-16.3-121.9l-0.8-3.2L732.1,267.4z M584.1,257.8c-9.6,38.8-15.1,79.8-16.2,121.9l-0.1,3.9h130.7V267.4
		l-113.6-12.7L584.1,257.8z M463.8,214.9C434.4,247,403,333.3,403.7,379.8l0.1,3.7h130.9l0.1-3.6c1.6-46.3,7.5-90,17.3-129.8
		l0.8-3.2L465.5,213L463.8,214.9z M732.2,233l3.9-0.1c34.8-1.2,66.1-4.7,95.7-10.7l4-0.8l-1.2-3.9c-8.9-30-31.7-71.2-51.9-93.9
		c-14-15.7-28.7-26.1-44.8-31.7l-5.8-1.8L732.2,233L732.2,233z M693.8,91.5c-11.4,3.7-22.2,10-31.9,18.6
		c-34.6,30.5-52.6,71.2-65.7,107l-1.5,4l4.2,0.9c22.2,5.1,72.3,10.7,95.6,10.7h3.9l0.3-3.9v-139L693.8,91.5z M815.1,110.8
		c10.8,13.2,19.9,27.4,27,42c6.5,13.3,12.4,26.7,18.6,40.9l9.1,20.9l73-27.6l-3.6-4.1c-23.8-27.1-82.2-65-120.1-78l-12.4-4.2
		L815.1,110.8z M611.1,105.5c-41.9,14.9-100,52.2-119.5,76.8l-2.9,3.7l4.2,2.1c20.6,10,42.3,18.1,66.3,24.8l3.4,0.9l1.2-3.3
		c14.6-41.7,31-73.1,51.6-99.1l8.2-10.3L611.1,105.5z"/>
	<g>
		<path class="st1" d="M307.1,1191.4c-56,0-101.6-45.6-101.6-101.6s45.6-101.6,101.6-101.6s101.6,45.6,101.6,101.6
			S363.1,1191.4,307.1,1191.4z M307.1,1018.1c-39.5,0-71.6,32.1-71.6,71.6s32.1,71.6,71.6,71.6s71.6-32.1,71.6-71.6
			S346.6,1018.1,307.1,1018.1z"/>
	</g>
	<g>
		<path class="st1" d="M708.7,1191.4c-56,0-101.6-45.6-101.6-101.6s45.6-101.6,101.6-101.6s101.6,45.6,101.6,101.6
			S764.7,1191.4,708.7,1191.4z M708.7,1018.1c-39.5,0-71.6,32.1-71.6,71.6s32.1,71.6,71.6,71.6s71.6-32.1,71.6-71.6
			S748.2,1018.1,708.7,1018.1z"/>
	</g>
	<g>
		<path class="st1" d="M1110.2,1191.4c-56,0-101.6-45.6-101.6-101.6s45.6-101.6,101.6-101.6s101.6,45.6,101.6,101.6
			S1166.2,1191.4,1110.2,1191.4z M1110.2,1018.1c-39.5,0-71.6,32.1-71.6,71.6s32.1,71.6,71.6,71.6s71.6-32.1,71.6-71.6
			S1149.7,1018.1,1110.2,1018.1z"/>
	</g>
</g>
</svg>
