<?xml version="1.0" encoding="utf-8"?>
<!-- Generator: Adobe Illustrator 24.0.1, SVG Export Plug-In . SVG Version: 6.00 Build 0)  -->
<svg version="1.1" id="Layer_1" xmlns="http://www.w3.org/2000/svg" xmlns:xlink="http://www.w3.org/1999/xlink" x="0px" y="0px"
	 viewBox="0 0 1615.8 1239.2" style="enable-background:new 0 0 1615.8 1239.2;" xml:space="preserve">
<style type="text/css">
	.st0{fill:#FFFFFF;}
</style>
<g>
	<g>
		<g>
			<path class="st0" d="M1145,1036.4v61.6c0,17.6,14.2,31.8,31.8,31.8h0v-69c0-13.5-10.9-24.4-24.4-24.4L1145,1036.4L1145,1036.4z"
				/>
			<path class="st0" d="M1145,993.6v-3.8c0,13.5,10.9,24.4,24.4,24.4h7.4v-21c-1.1-44.7-46.7-89.2-107.9-105.5l-95.1-44.8
				l-61.6-61.6h-10.3v-51.5l0.7-0.4c23.6-13.3,41.7-28.3,54.6-44.7l-17.8-7.9c-7.2-3.2-15.7-2.1-21.7,3.2
				c-23,20.3-52.9,33.2-68.3,39.7c-4.3,1.8-7.6,3.2-9.8,4.3c-10.8,5.4-39.4,18-71.4,18s-60.6-12.5-71.4-17.9
				c-2.2-1.1-5.5-2.5-9.8-4.3c-27.2-11.6-99.3-42.3-99.3-99.3v-44.8l-26.1-33.1l-2.7-2.2c-6.5-4.3-10.4-11.6-10.4-19.4v-67.3
				l39.3-19.6v-49.1c0-88.8,72-160.8,160.8-160.8h39.2c88.8,0,160.8,72,160.8,160.8v49.1l39.3,19.6v67.3c0,7.8-3.9,15.1-10.4,19.4
				l-28.9,35.3v44.8c0,5.7-0.9,11-2.2,16.1l5.7,2.5c13.3,5.9,28.3-3.8,28.3-18.4v-0.3v-33.7l17.1-21.6
				c13.9-10.4,22.2-26.9,22.2-44.3v-87l-39.3-19.6v-29.4c0-106.4-86.3-192.7-192.7-192.7h-39.3c-106.4,0-192.6,86.3-192.6,192.6
				v29.5l-39.3,19.6v87c0,17,8,33.3,22.3,44.3l17,21.5v33.7c0,43.1,26.2,79.7,77.9,109l0.7,51.9h-10.3l-61.6,61.6l-94.6,44.5
				c-61.6,16.5-107.2,61.1-108.4,106.1V1098c0,17.6,14.2,31.8,31.8,31.8h0l0-135.8c0.8-30.2,38.3-63.5,86.5-76.4l89.6-41.9
				l100.3,120.4l32.4-25.9l12.5,62.3l-10.7,43c-4.3,17.1,6.1,34.3,23.2,38.6l0,0l16.3-65.3H795l16.3,65.3h0
				c17-4.3,27.4-21.5,23.2-38.6l-10.7-43l12.5-62.3l32.4,25.9l100.3-120.3l87.5,41.2l2.9,1C1106.6,930.3,1144.2,963.6,1145,993.6z
				 M666.3,745.5l8.6,3.7c3.3,1.4,5.9,2.5,7.6,3.3c15.9,8,48.2,21.3,85.7,21.3c37.4,0,69.7-13.4,85.7-21.3c1.5-0.8,3.9-1.8,6.9-3
				l9.4-4v44.3l-101.9,84.9l-101.9-84.9L666.3,745.5L666.3,745.5z M672.2,951.8l-78.9-94.7l44-44h7.3l98.4,82L672.2,951.8z
				 M794.4,1017H742l-13.8-69.1l40.1-32l40.1,32L794.4,1017z M864.1,951.8l-70.8-56.6l98.4-82h7.3l44,44L864.1,951.8z"/>
		</g>
	</g>
	<g>
		<path class="st0" d="M1117.6,109.3c-76.5,0-138.7,62.2-138.7,138.7c0,76.5,62.2,138.7,138.7,138.7c76.5,0,138.7-62.2,138.7-138.7
			C1256.2,171.5,1194,109.3,1117.6,109.3z M1223.4,248c0,58.4-47.5,105.9-105.9,105.9s-105.9-47.5-105.9-105.9
			s47.5-105.9,105.9-105.9S1223.4,189.6,1223.4,248z"/>
		<path class="st0" d="M1067.2,314.1c-7.8-7-11.5-9.3-18.9-16.9c-3.3-3.4-6.7-6.9-9.2-10.7c-6.6-9.9-6.9-19.4-0.8-29.7
			c1.4-2.4,3.1-4.7,5.1-7.1l29.6,32.8l32.5-32c3.3-3.3,25.7-22,29-25.4c7.7-7.8,15.7-15.8,23.9-23.2c4-3.6,8-6.2,12.3-8.1
			c3.9-1.7,7.8-2.5,11.4-2.5c5.2,0,10.2,1.6,15.3,4.9c1.2,0.8,2.5,1.7,3.7,2.8l-125.8,122.2C1072.6,318.8,1069.9,316.4,1067.2,314.1
			z"/>
	</g>
</g>
</svg>
