<?xml version="1.0" encoding="utf-8"?>
<!-- Generator: Adobe Illustrator 24.0.1, SVG Export Plug-In . SVG Version: 6.00 Build 0)  -->
<svg version="1.1" id="Layer_1" xmlns="http://www.w3.org/2000/svg" xmlns:xlink="http://www.w3.org/1999/xlink" x="0px" y="0px"
	 viewBox="0 0 1332.3 1239.2" style="enable-background:new 0 0 1332.3 1239.2;" xml:space="preserve">
<style type="text/css">
	.st0{fill:#FFFFFF;}
</style>
<g>
	<path class="st0" d="M985.2,292.7c-68,0-123.4,55.4-123.4,123.4c0,68.1,55.4,123.4,123.4,123.4s123.4-55.4,123.4-123.4
		S1053.3,292.7,985.2,292.7z M1079.5,416.1c0,52-42.3,94.2-94.2,94.2c-52,0-94.2-42.3-94.2-94.2s42.3-94.2,94.2-94.2
		C1037.2,321.9,1079.5,364.1,1079.5,416.1z"/>
	<path class="st0" d="M989,403.8h-4.1c-6.1,0-11.1-5-11.1-11.1s5-11.1,11.1-11.1h18.4c7.2,0,13-5.9,13-13c0-7.2-5.9-13-13-13h-3.3
		V344c0-7.2-5.9-13-13.1-13c-7.2,0-13,5.9-13,13v13.2c-15.4,4.8-26.2,19.2-26.2,35.5c0,20.5,16.7,37.2,37.2,37.2h4.1
		c6.2,0,11.1,5.1,11.1,11.5c0,6.1-5,11.1-11.1,11.1h-20.9c-7.2,0-13,5.8-13,13s5.8,13,13,13h5.8V490c0,7.2,5.8,13,13,13
		s13.1-5.8,13.1-13v-13.2c15.3-4.8,26.2-19.4,26.2-35.9C1026.2,420.4,1009.5,403.8,989,403.8z"/>
	<path class="st0" d="M891.1,825.5l-1.3-3.5l-3.7,0.9c-73.4,17.2-147.6,26.2-220.5,26.8h-4.3v169.9h269l-0.1-4.5
		C928.2,952.4,915.1,888.6,891.1,825.5z M872.7,853.2c16.1,46.5,26,93.5,29.4,139.8H687.8V876C749,874,811.2,866.4,872.7,853.2z"/>
	<path class="st0" d="M881.5,815l5-1.2l-2-4.7c-24.2-59-57.6-116.8-99.1-171.9l-1.9-2.5l-3,1c-41.2,13.5-78.8,20.4-115.2,21
		l-4.3,0.1V841h4.4C736.9,840.4,809.6,831.6,881.5,815z M773.5,665.8c30.2,41.7,55.7,85,75.8,128.9c-53.8,11-108,17.4-161.4,19.2
		V682.3C715.4,680.1,743.5,674.7,773.5,665.8z"/>
	<path class="st0" d="M772.1,629.4l6-1.9l-3.9-4.9c-39.5-50.2-71.1-78.8-72.4-80l-1.1-1l-1.5-0.1c-10.6-0.9-21.6-1.4-33.7-1.6
		l-4.4-0.1v108.6l4.4-0.1C699.1,647.7,734,641.5,772.1,629.4z M689.3,567.5c8.2,8,23.5,23.3,42.4,45.4c-15.2,3.6-29.7,6-44,7.4v-53
		C688.3,567.4,688.8,567.5,689.3,567.5z"/>
	<path class="st0" d="M535.8,632.1l-3.1-1.2l-2,2.7c-41.4,56.6-74.8,115.7-99.5,175.9l-1.9,4.7l5,1.2
		c71.2,16.3,143.1,24.9,213.7,25.6h4.4V656.7l-4.2-0.2C611.4,655.2,574.6,647.2,535.8,632.1z M466.6,795
		c20.3-44.8,45.8-89.2,75.9-132.1c28.4,9.8,55.8,16,83.3,18.8v132.1C573.1,812,519.6,805.7,466.6,795z"/>
	<path class="st0" d="M609.6,542l-1.5,0.2l-1.1,1.1l-0.4,0.5c-3.7,3.6-30.7,30.3-65,75.5l-3.5,4.6l5.5,2.1
		c35.9,13.6,70.1,20.9,104.5,22.3l4.5,0.2V539.8l-4.4,0.1C634.9,540.1,622,540.8,609.6,542z M582.2,610.7
		c17-20.7,30.6-35.2,37.9-42.8c1.9-0.1,3.8-0.3,5.6-0.4v52.2C611.3,617.8,596.9,614.9,582.2,610.7z"/>
	<path class="st0" d="M456.2,583.1l7.5,4.3c22.3,12.8,42.8,23.2,62.8,31.7l3.1,1.3l2-2.7c22.2-29.5,41.6-51.6,54-64.9l8.5-9.2
		l-12.4,1.9c-40.6,6.3-80.2,17.8-117.6,34L456.2,583.1z M522,586.7c-0.2,0.3-0.5,0.6-0.7,0.9c-0.3-0.1-0.6-0.3-0.8-0.4
		C521,587,521.5,586.8,522,586.7z"/>
	<path class="st0" d="M429.9,823.3l-3.7-0.9l-1.4,3.5c-24.1,63.3-37.8,126.9-40.6,189.1l-0.2,4.6h268.5v-170h-4.3
		C575.9,849,502.5,840.1,429.9,823.3z M412.4,993c4.2-45.9,14.5-92.8,30.7-139.4c60.6,12.9,122,20.4,182.6,22.3V993H412.4z"/>
	<path class="st0" d="M954.4,759l3.6-2.5L852.7,607.1l-3.3,1.5c-18,8.1-35.4,15.3-51.8,21.2l-5.5,2l3.5,4.7
		c41,55.2,74,113.1,97.9,171.8l1.4,3.5l3.7-0.9c11.7-2.9,23.5-6.1,35.2-9.5l3.5-1l-0.4-3.6c-0.1-1.4-0.2-2.8-0.2-4.3
		C936.8,779.2,943.4,766.6,954.4,759z M910.6,780.2c-20.3-46.2-46-91.9-76.6-136c3.1-1.3,6.3-2.6,9.4-4L922.9,753
		c-5.8,8-9.8,17.3-11.6,27L910.6,780.2z"/>
	<path class="st0" d="M784.7,622.1l1.9,2.5l3-1c16.9-6,34.8-13.3,53.3-21.6l4.7-2.1l-4-6c-1.7-2.5-3.4-5-5-7.6
		c-2.6-4.2-11.7-17-11.7-17c-33-12.8-64.2-19.4-99.2-24.5L715,543l9,9.2C738.1,566.5,760.1,590.4,784.7,622.1z M795.6,592.8
		c-1.9-2.4-3.8-4.7-5.6-6.9c4.2,1.3,8.5,2.7,12.7,4.1C800.3,591,797.9,591.9,795.6,592.8z"/>
	<path class="st0" d="M519.5,625.4c-22.5-9.8-72.6-37.8-72.6-37.8s-84.2,34.6-154.2,117c-13.5,15.3-26.1,31.5-37.5,48.1l-3,4.5l5,2
		c53.4,21.5,107.2,39,160,52.1l3.7,0.9l1.4-3.5c24.4-60.3,57.8-119.8,99-176.8l3.2-4.4L519.5,625.4z M406.6,783.7
		c-38.6-10.2-77.8-22.8-116.9-37.6c6.7-8.7,13.7-17.3,21-25.5l0.3-0.4c51.3-60.4,111.4-94,134.9-105.6c10.6,5.8,27.2,14.8,42.2,22.5
		C455.5,684.7,428.1,733.8,406.6,783.7z"/>
	<path class="st0" d="M417.7,820.3l-4.8-1.2c-53.5-13.3-108.1-31.2-162.3-53.2l-3.4-1.4l-1.9,3.1c-41.9,66.8-66,141.4-71.5,221.6
		c-0.5,7.9,2.1,15.4,7.6,21.2c5.4,5.8,13.1,9.1,21,9.1h172.9l0.2-4.2c2.8-62.6,16.4-126.7,40.5-190.6L417.7,820.3z M382.7,838.8
		c-17.4,51.5-28.4,103.3-32.5,154.1H202.4c-0.7,0-1.2-0.3-1.5-0.7c-0.4-0.5-0.5-0.9-0.4-1.2c4.8-69.4,24.3-134.5,58-193.4
		C299.7,813.8,341.4,827.6,382.7,838.8z"/>
	<path class="st0" d="M1065.8,764.8l-3.4,1.4c-12.9,5.3-26.8,10.6-41.2,15.9l-3.3,1.2l0.5,3.5c0.3,1.9,0.4,3.8,0.4,5.8
		c0,22.6-18.4,41-41,41c-15.1,0-29-8.3-36.2-21.7l-1.7-3.1l-3.4,1c-11.2,3.2-22.5,6.2-33.7,9l-4.7,1.2l1.7,4.6
		c24,63.7,37.1,127.9,38.9,190.9l0.1,4.2h172.3c7.9,0,15.6-3.3,21-9.2c5.4-5.8,8.1-13.4,7.5-21.3c-5.6-78.2-30.5-154.8-72-221.3
		L1065.8,764.8z M1044.9,801.7c3.3-1.2,6.5-2.5,9.7-3.7c33.4,59,53.7,125.7,58.5,193.1c0,0.2,0.1,0.7-0.4,1.2l0,0
		c-0.3,0.3-0.7,0.6-1.5,0.6H964.4c-3.3-48.9-13-98.5-29-147.7c11.9,9.6,26.9,14.9,42.4,14.9C1012,860.2,1040.3,835.3,1044.9,801.7z"
		/>
	<path class="st0" d="M1013.2,771.9l1.8,3.2l3.4-1.3c12.5-4.6,25-9.4,37.5-14.4l5-2l-3-4.5c-8.1-12-16.9-23.9-26.2-35.2l-3.6-4.4
		l-30.5,43.2l3.6,2.5C1006.2,762.4,1010.2,766.8,1013.2,771.9z"/>
	<path class="st0" d="M1121.6,293.6c-28.1-38.8-70.5-65-116.3-72c-45.8-7.4-95.3,5.4-132.4,34.2c-36.7,28-62.5,70.6-70.7,117
		c-4,21.6-4.2,44.9-0.6,69.4c3.4,22.6,9.9,44.9,19.4,66.2c4.7,10.5,10.1,20.8,16.2,30.6c2.9,4.7,6.1,9.5,9.5,14.4l132,185.1
		l131.6-184.9c27.4-38.5,43.8-82.8,47.4-128.1C1161.9,378.5,1148.7,330.4,1121.6,293.6z M1128.6,423.1
		c-3.2,40.1-17.7,79.4-42.1,113.6l-74.9,105.2c-1.3,1.4-2.3,2.9-2.9,4.1l-30.1,42.3L870.5,536.5c-3.1-4.3-5.9-8.7-8.5-12.9
		c-5.4-8.8-10.2-17.9-14.4-27.2c-8.5-18.8-14.2-38.5-17.2-58.6c-3.2-21.2-3-41.4,0.4-59.9c7-39.3,28.7-75.4,59.8-99.1
		c24.8-19.2,57.1-30.2,88.6-30.2c7.2,0,14.5,0.6,21.6,1.7c38.2,5.8,73.6,27.8,97.2,60.4C1121,342,1132.2,383,1128.6,423.1z"/>
</g>
</svg>
