<?xml version="1.0" encoding="utf-8"?>
<!-- Generator: Adobe Illustrator 24.0.1, SVG Export Plug-In . SVG Version: 6.00 Build 0)  -->
<svg version="1.1" id="Layer_1" xmlns="http://www.w3.org/2000/svg" xmlns:xlink="http://www.w3.org/1999/xlink" x="0px" y="0px"
	 viewBox="0 0 1332.3 1239.2" style="enable-background:new 0 0 1332.3 1239.2;" xml:space="preserve">
<style type="text/css">
	.st0{fill:#FFFFFF;}
</style>
<g>
	<path class="st0" d="M1004.4,773.7V833c-0.1,81.8-66.7,148.5-148.6,148.6H476.4C394.6,981.5,328,914.8,327.9,833v-86.8
		c0-181.9,140.2-337.3,321.9-346c180.1-8.6,331.4,124.6,352.2,297.3c2.1,17.7,16.8,31.2,34.6,31.2h2.5
		c-3.1-124.5-67-237.9-172.4-304.9l-4.4-2.8l56.7-141.8c4.1-10.2,4-21.4-0.4-31.5c-4.3-10.1-12.3-17.9-22.5-22
		c-4.9-1.9-10-2.9-15.3-2.9H453.8c-21.7,0-41.2,15.9-43.1,37.5c-0.6,6.6,0.4,13,2.8,19L470.2,421l-4.4,2.8
		C358.2,492.2,293,610.8,293,738.3V833c0,101.3,82.1,183.4,183.4,183.4h379.4c101.3,0,183.4-82.1,183.4-183.4v-24.5
		C1039.3,789.3,1023.7,773.7,1004.4,773.7L1004.4,773.7z M442.3,257.6h447.6L831.4,404l-6-2.9c-49.4-23.6-104.5-36-159.2-36
		c-54.7,0-109.8,12.5-159.2,36l-6,2.9L442.3,257.6z"/>
	<path class="st0" d="M650.7,610.5h120v-9.7c0-16.3-13.2-29.6-29.6-29.6h-61.5v-39.5c0-16.3-13.2-29.6-29.6-29.6h-9.7v69.6l-3.6,0.8
		c-17.1,3.8-33.2,12.4-44.3,26c-17.3,20.9-22.2,48.3-13.3,73.8c10.8,31,41.8,50.5,74.7,50.5h29.8c19.1,0,36.6,13.7,38.5,32.8
		c2.2,21.9-15,40.4-36.4,40.4h-94.7c-16.3,0-29.6,13.2-29.6,29.6v9.7h78.8v40.5c0,16.3,13.2,29.6,29.6,29.6h9.7v-70.1l5.5-0.1
		c35.1-0.8,66.7-24.4,74.6-58.6c11.1-48.6-26.5-92.6-73.2-92.9h-33.9c-18.8,0-36.1-13.2-38.4-31.9c-1.4-11.4,2.4-22.5,10.3-30.5
		C631.5,614.3,640.8,610.5,650.7,610.5z"/>
</g>
</svg>
