<?xml version="1.0" encoding="utf-8"?>
<!-- Generator: Adobe Illustrator 24.0.1, SVG Export Plug-In . SVG Version: 6.00 Build 0)  -->
<svg version="1.1" id="Layer_1" xmlns="http://www.w3.org/2000/svg" xmlns:xlink="http://www.w3.org/1999/xlink" x="0px" y="0px"
	 viewBox="0 0 1332.3 1239.2" style="enable-background:new 0 0 1332.3 1239.2;" xml:space="preserve">
<style type="text/css">
	.st0{fill:#FFFFFF;}
</style>
<path class="st0" d="M640.9,1045.4c-3.9-0.5-8.8-1.1-13.5-1.6l-2-0.2c-9.4-1.1-19.1-2.3-28.7-3.9c-87.5-15-163.8-53.7-226.7-115
	c-65.2-63.5-106.4-141.2-122.5-230.8c-1.9-10.5-3.3-21.5-4.7-32.6c-0.6-5-1.2-9.9-1.9-14.9l0.2-54.2l0.2-0.9c0.5-2,0.8-3.5,0.9-4.5
	c3.4-46.6,13.6-89.6,30.4-128.1c61.6-141.3,169.3-228.2,320-258.3c10.4-2.1,21-3.4,31.4-4.6c6.1-0.7,11.2-1.3,16.2-2l54.2,0.1
	l10.6,1.3c6.5,0.7,13.2,1.5,19.8,2.4c85.7,12.4,161,47,223.8,102.8c69.2,61.5,114.2,138,133.8,227.3l1.3,5.1
	c1.1,4.6,0.3,9.5-2.3,13.6c-2.6,4.1-6.6,7-11.3,8.1l-17.7,4.2l-10.4-44.4c-12.7-45.3-33.6-88-62.2-127l-3.4-4.6l-5.2,2.5l-1.2,0.5
	c-27.5,11.6-55.1,22.9-81.9,33.5c-5,2-10.3,3.5-16.2,5.1l-0.6,0.2l-6,2.7l1.4,5.6c12.5,50.2,19.7,103.2,21.8,162l0.2,6.7h163.6
	c11.2,0.9,39,7.7,39,52c-5.1,66.5-24.7,128.5-58.5,183.7c-67.2,110-165.4,177.9-291.8,202c-10.8,2.1-22,3.4-32.8,4.7l-2.6,0.3
	c-4.6,0.5-9.3,1.1-13.9,1.7L640.9,1045.4z M641.1,825.1c-42.7,1.4-81.7,5.7-119.1,13.2l-7.5,1.5l2.2,7.3
	c9.4,31,33.8,78.2,53.2,103.1c19.6,25.3,38,40.9,59.6,50.6c3,1.3,6.3,2.5,9.7,3.7l9.1,3V824.8L641.1,825.1z M692.1,825.3l-6.7,0.3
	v181.9l9-2.8c12.1-3.8,23.2-9.8,34.1-18.6c46.5-37.2,69.9-88.6,88.2-138.6l2.7-7.5l-7.8-1.7c-28.6-6.3-88.3-13.1-116.1-13.1
	C694.3,825.3,693,825.3,692.1,825.3z M472.5,849.9c-32.5,9.2-58.7,19-82.3,30.8l-8.5,4.3l6.7,6.8c42.6,43.3,90.6,74.1,146.8,94
	l22.2,7.9l-14.4-18.7c-24.5-31.8-44.2-70.2-61.9-120.8l-2.2-6.2L472.5,849.9z M852.7,854.4c-17.6,50.4-37.3,88.8-61.9,120.7
	l-14.4,18.6l22.2-7.9c56.5-20,104.5-50.8,146.7-94l6.7-6.9l-8.7-4.2c-25.7-12.5-52.6-22.5-82.3-30.7l-6.2-1.7L852.7,854.4z
	 M277.5,638.1l0.5,7.4c5.3,75.3,30.5,144.2,74.9,204.9l3.1,4.3l112-43.5l-1.5-6c-6.9-27.5-10.3-42.7-13.2-64.9l-0.6-4.7
	c-0.7-5.3-1.8-17.4-1.8-17.4l-1.3-13.1c-1-9.9,6.4-18.8,16.4-19.8l18.1-1.7l4.6,48.5c3.1,25,6.6,39,13.1,64.5l1.5,5.9l145.1-16.1
	V637.9L277.5,638.1z M887.6,664.7c-1.7,20.8-3.3,41.6-6,61.9c-2.8,21-6.8,42.1-10.4,60.7l-4.6,24.3l111,43.1l3.2-4.3
	c44.6-61,69.7-130,74.8-205.2l0.5-7.4H889.8L887.6,664.7z M685.2,786.5l145.1,16.1l1.5-5.9c12.1-48.3,18.9-99.3,20.2-151.5l0.2-7.1
	h-167V786.5z M685.3,452.7v148.4h167l-0.2-7.2c-1.7-54.2-8.5-105.2-20.3-151.6l-1.5-5.9L685.3,452.7z M501.8,442.3
	c-12,48.2-18.8,99.2-20.2,151.6l-0.2,7.1h166.8V452.6l-144.9-16.2L501.8,442.3z M353.1,388c-36.7,40.2-76.1,148.1-75.1,206.1
	l0.1,6.8h166.8l0.2-6.7c2-57.3,9.2-111.3,21.4-160.5l1.5-5.9l-111.7-43.4L353.1,388z M685.4,414.4l7.2-0.3
	c43.2-1.5,82.1-5.9,119-13.3l7.4-1.5l-2.2-7.3c-11.1-37.4-39.5-89-64.8-117.3c-17.7-19.8-36.1-32.8-56.5-40l-10.2-3.2L685.4,414.4
	L685.4,414.4z M639.3,234.4c-14.5,4.7-28,12.6-40.4,23.5c-43.3,38.1-65.8,89-82.1,133.7l-2.7,7.4l7.7,1.8
	c27.7,6.4,90.1,13.3,119.1,13.3h6.9l0.5-6.9V231.4L639.3,234.4z M788.7,261.9c13.2,16.2,24.4,33.6,33.2,51.6
	c8.5,17.3,16.1,34.7,24.1,53.2l11.1,25.3l95.7-36.1l-6.6-7.5c-29.7-33.9-102.5-81.2-149.9-97.4l-23-7.9L788.7,261.9z M536.7,251.8
	c-52.3,18.6-124.9,65.2-149.3,96l-5.4,6.8l7.8,3.8c25.7,12.5,52.8,22.6,82.6,30.9l6.3,1.8l2.1-6.1c18-51.4,38.3-90.3,63.6-122.2
	l15.1-19L536.7,251.8z"/>
</svg>
