<?xml version="1.0" encoding="utf-8"?>
<!-- Generator: Adobe Illustrator 24.0.1, SVG Export Plug-In . SVG Version: 6.00 Build 0)  -->
<svg version="1.1" id="Layer_1" xmlns="http://www.w3.org/2000/svg" xmlns:xlink="http://www.w3.org/1999/xlink" x="0px" y="0px"
	 viewBox="0 0 1332.3 1239.2" style="enable-background:new 0 0 1332.3 1239.2;" xml:space="preserve">
<style type="text/css">
	.st0{fill:#FFFFFF;}
</style>
<g>
	<path class="st0" d="M663.6,356.3c5.3,0,10.8-0.4,16.1-1.1c49.8-7,89.6-46.2,97.5-95.6h153.3c8.8,55.3,57.2,96.8,113.3,96.8
		c5.3,0,10.8-0.4,16.1-1.1c62.7-8.8,106.6-67,97.8-129.7c-7.9-56.4-56.8-98.9-114.2-98.9h-1.6c-56,0.2-104.2,41.7-113,96.8H777.2
		c-8.8-55.3-57.2-96.8-113.3-96.8c-5.3,0-10.8,0.4-16.1,1.1c-30.4,4.3-57.3,20.1-75.8,44.6c-18.5,24.5-26.3,54.7-22,85.1
		C557.9,313.8,606.7,356.3,663.6,356.3z M585.5,239.9c0-43.4,35.3-78.7,78.7-78.7c43.4,0,78.7,35.3,78.7,78.7
		c0,43.4-35.3,78.7-78.7,78.7C620.8,318.5,585.5,283.3,585.5,239.9z M963.3,239.9c0-43.4,35.3-78.7,78.7-78.7
		c43.4,0,78.7,35.3,78.7,78.7c0,43.4-35.3,78.7-78.7,78.7C998.5,318.5,963.3,283.3,963.3,239.9z"/>
	<path class="st0" d="M286.5,883.6c-63.3,0-114.9,51.5-114.9,114.9s51.5,114.9,114.9,114.9c63.4,0,114.9-51.5,114.9-114.9
		S349.8,883.6,286.5,883.6z M286.5,918.2c43.4,0,78.7,35.3,78.7,78.7c0,43.4-35.3,78.7-78.7,78.7c-43.4,0-78.7-35.3-78.7-78.7
		C207.8,953.5,243.1,918.2,286.5,918.2z"/>
	<path class="st0" d="M773.2,961.6l238.2-238.2c11.7,3.8,23.7,5.8,35.9,5.8c49,0,92.6-31.2,108.6-77.5c10-29,8.1-60.2-5.4-87.8
		c-13.5-27.6-36.8-48.3-65.9-58.2c-12.1-4.1-24.6-6.2-37.4-6.2c-0.9,0-1.9,0-2.8,0V498l-2.5,0c-63.3,1.1-114,53.5-112.9,116.9
		c0.6,35.7,18,69.3,46.6,90.4L755,927.5c-17.9-22.5-44.2-37.8-72.7-42.1V725.9c29.5-4.7,55.6-20.4,73.6-44.3
		c18.5-24.5,26.3-54.7,22-85.1c-7.9-56.4-56.8-98.9-113.6-98.9c-5.4,0-10.8,0.4-16.1,1.1c-30.4,4.2-57.3,20.1-75.8,44.6
		c-18.5,24.5-26.3,54.7-22,85.1c7,49.8,46.2,89.6,95.7,97.5v159.6c-61.5,10-104.1,67.7-95.3,129.7c8.1,56.2,56.9,98.6,113.6,98.6
		c5.5,0,11-0.4,16.5-1.2c30.4-4.3,57.2-20.3,75.6-44.8c18.4-24.6,26.1-54.8,21.8-85.2C777.2,975.4,775.5,968.4,773.2,961.6z
		 M963.3,612.9c0-43.4,35.3-78.7,78.7-78.7c43.4,0,78.7,35.3,78.7,78.7c0,43.4-35.3,78.7-78.7,78.7
		C998.5,691.6,963.3,656.3,963.3,612.9z M585.5,996.9c0-43.4,35.3-78.7,78.7-78.7c43.4,0,78.7,35.3,78.7,78.7
		c0,43.4-35.3,78.7-78.7,78.7C620.8,1075.5,585.5,1040.3,585.5,996.9z M664.2,691.6c-43.4,0-78.7-35.3-78.7-78.7
		c0-43.4,35.3-78.7,78.7-78.7c43.4,0,78.7,35.3,78.7,78.7C742.9,656.3,707.6,691.6,664.2,691.6z"/>
	<path class="st0" d="M1041.9,883.6c-63.3,0-114.9,51.5-114.9,114.9s51.5,114.9,114.9,114.9s114.9-51.5,114.9-114.9
		S1105.3,883.6,1041.9,883.6z M1041.9,1075.5c-43.4,0-78.7-35.3-78.7-78.7c0-43.4,35.3-78.7,78.7-78.7c43.4,0,78.7,35.3,78.7,78.7
		C1120.6,1040.3,1085.3,1075.5,1041.9,1075.5z"/>
	<path class="st0" d="M273.1,354.5v157.8c-29.2,3.3-55.6,17.5-74.5,40.1c-19.4,23.3-28.5,52.7-25.7,82.8
		c5.4,58.7,53.8,103,112.7,103c0,0,0,0,0,0c3.5,0,7-0.2,10.5-0.5c62.2-5.7,108.2-61,102.5-123.2c-4.5-49.2-41.1-90.2-89.2-100.5
		V352.7c52.1-11.3,90.1-57.8,90.5-111.3c0.3-30.7-11.3-59.6-32.8-81.6c-21.5-21.9-50.2-34.2-82.1-34.5c-62.7,0-114.2,51-114.8,113.7
		C169.5,298.2,214.5,348.5,273.1,354.5z M363.6,625.4c0,43.4-35.3,78.7-78.7,78.7c-43.4,0-78.7-35.3-78.7-78.7
		c0-43.4,35.3-78.7,78.7-78.7C328.3,546.7,363.6,582,363.6,625.4z M286.5,320.1c-43.4,0-78.7-35.3-78.7-78.7
		c0-43.4,35.3-78.7,78.7-78.7c43.4,0,78.7,35.3,78.7,78.7C365.2,284.8,329.9,320.1,286.5,320.1z"/>
</g>
</svg>
